<?xml version="1.0" encoding="UTF-8"?>
<svg width="1597" height="425" viewBox="0 0 1597 425" fill="none" xmlns="http://www.w3.org/2000/svg">
  <path d="M501.695 294.823V220.44C501.695 170.343 478.783 148.242 438.688 148.242C408.288 148.242 383.392 165.966 373.256 187.836H372.592C364.225 161.58 345.497 148.456 316.417 148.456C286.233 148.456 263.321 168.142 254.289 187.836H253.625C253.625 187.836 254.945 183.459 254.945 179.304V173.616C254.945 160.055 245.689 152.833 228.729 152.833H184.45V192.213H199.65C204.938 192.213 208.682 195.28 208.682 200.968V343.173H254.945V259.161C254.945 250.629 256.265 242.756 258.249 235.312C264.201 211.026 280.057 191.117 304.297 191.117C327.209 191.117 329.848 208.618 329.848 229.187V342.95H378.32V259.161C378.32 250.192 379.2 242.319 381.408 234.875C386.696 211.026 403.44 191.117 427.016 191.117C449.264 191.117 453.232 207.522 453.232 229.187V317.353C453.232 335.291 461.384 342.95 479.448 342.95H523.727V303.57H509.847C504.559 303.792 501.695 300.074 501.695 294.823ZM612.95 147.805C555.446 147.805 515.351 188.933 515.351 247.57C515.351 301.831 554.782 347.336 618.454 347.336C666.261 347.336 695.565 318.458 695.565 318.458L675.518 285.64C675.518 285.64 652.606 306.859 621.766 306.859C592.687 306.859 568.015 288.261 564.263 255.443H696.67C696.67 255.443 697.775 243.63 697.775 237.942C697.998 187.845 668.021 147.805 612.95 147.805ZM566.022 222.847C571.31 198.784 588.71 184.341 613.166 184.341C632.774 184.341 648.638 200.968 649.293 222.847H566.022ZM763.861 267.042V190.029H807.924V152.833H763.861V78.4502H717.597V152.833H691.157V190.029H717.597V273.167C717.597 337.048 770.693 344.929 797.573 344.929C806.165 344.929 812.333 343.832 812.333 343.832V302.267C812.333 302.267 808.149 302.927 802.861 302.927C789.645 302.927 763.869 298.55 763.869 267.051L763.861 267.042ZM1003.99 294.823V220.44C1003.99 169.906 979.978 148.027 937.019 148.027C903.971 148.027 880.179 168.373 871.148 185.874H870.483C870.483 185.874 871.803 179.09 871.803 169.684V102.522C871.803 85.2349 863.436 78.4588 845.587 78.4588H799.1V117.839H815.179C820.467 117.839 823.331 120.46 823.331 126.157V343.181H871.794V255.451C871.794 246.482 872.235 238.164 874.434 230.729C881.482 207.539 901.53 191.134 926.866 191.134C950.881 191.134 957.705 206.888 957.705 230.077V317.584C957.705 335.523 964.097 343.181 981.937 343.181H1028.2V303.801H1012.34C1007.05 303.801 1003.97 300.083 1003.97 294.832L1003.99 294.823ZM1395.92 303.792C1390.63 303.792 1387.33 300.074 1387.33 294.823V102.959C1387.33 85.4576 1379.84 78.4588 1362.22 78.4588H1316.83V117.839H1331.59C1336.88 117.839 1338.86 120.46 1338.86 126.157V159.849H1339.3C1322.34 149.347 1302.29 143.444 1280.04 143.444C1221.22 143.444 1174.74 184.572 1174.74 243.21C1174.74 278.65 1148.74 302.722 1117.46 302.722C1086.62 302.722 1060.62 278.872 1060.62 243.21C1060.62 207.984 1083.53 183.698 1114.37 183.698H1114.59C1134.64 183.698 1155.35 193.978 1165.48 210.829C1172.53 187.639 1177.38 179.758 1187.29 167.73C1168.78 151.977 1144.99 144.104 1117.23 144.104H1117.01C1059.29 144.104 1012.8 185.232 1012.8 243.433C1012.8 302.062 1059.51 342.976 1117.89 342.976C1176.71 342.976 1223.19 301.848 1223.19 242.996C1223.19 207.556 1249.19 183.484 1280.47 183.484C1311.31 183.484 1337.31 207.333 1337.31 242.996C1337.31 278.221 1311.31 302.507 1280.47 302.507C1260.42 302.507 1242.58 292.228 1232.22 275.377C1225.18 298.567 1220.33 306.885 1210.42 318.912C1228.92 334.666 1252.71 342.761 1280.47 342.761C1304.05 342.761 1325.41 335.977 1342.81 324.164V324.386C1342.81 335.54 1349.21 342.984 1366.61 342.984H1411.55V303.604H1395.91L1395.92 303.792Z" fill="#022266"/>
</svg> 